<svg xmlns="http://www.w3.org/2000/svg" viewBox="0 0 24 24">
  <circle cx="12" cy="12" r="12" fill="#fff"/>
  <path d="M12.06 1a10.92 10.92 0 0 0-3.45 21.29c.55.1.75-.23.75-.52l-.01-2.04c-2.75.5-3.46-.67-3.68-1.28-.12-.31-.65-1.28-1.12-1.54-.38-.2-.92-.71-.01-.73.86-.01 1.48.8 1.68 1.12.98 1.66 2.55 1.2 3.18.9.1-.7.38-1.18.7-1.46-2.43-.27-4.97-1.21-4.97-5.4 0-1.18.42-2.16 1.12-2.93-.11-.27-.5-1.39.1-2.9 0 0 .92-.28 3.01 1.13a10.13 10.13 0 0 1 5.46 0c2.1-1.42 3-1.12 3-1.12.6 1.5.23 2.62.12 2.9.7.76 1.12 1.73 1.12 2.93 0 4.2-2.56 5.12-4.99 5.4.4.33.74.99.74 2.01l-.01 3c0 .3.2.64.75.53A10.94 10.94 0 0 0 12.07.99Z"/>
</svg>